<?xml version="1.0"?>
<svg width="1100" height="201" xmlns="http://www.w3.org/2000/svg" version="1.1">
 <polygon points="146,188 1076,188 1088,176 1088,23 1076,11 146,11 134,23 134,176 146,188" stroke="#FFFFE0" fill="#FFFFE0"/>
 <polyline points="1076,188 1078,188 1080,187 1081,187 1083,186 1084,184 1086,183 1087,181 1087,180 1088,178 1088,176" stroke="#FFFFE0" fill="none"/>
 <polyline points="1088,23 1088,21 1087,19 1087,18 1086,16 1084,15 1083,13 1081,12 1080,12 1078,11 1076,11" stroke="#FFFFE0" fill="none"/>
 <polyline points="146,11 144,11 142,12 141,12 139,13 138,15 136,16 135,18 135,19 134,21 134,23" stroke="#FFFFE0" fill="none"/>
 <polyline points="134,176 134,178 135,180 135,181 136,183 138,184 139,186 141,187 142,187 144,188 146,188" stroke="#FFFFE0" fill="none"/>
 <polyline points="146,188 1076,188" stroke="#000000" fill="none"/>
 <polyline points="1076,188 1078,188 1080,187 1081,187 1083,186 1084,184 1086,183 1087,181 1087,180 1088,178 1088,176" stroke="#000000" fill="none"/>
 <polyline points="1088,176 1088,23" stroke="#000000" fill="none"/>
 <polyline points="1088,23 1088,21 1087,19 1087,18 1086,16 1084,15 1083,13 1081,12 1080,12 1078,11 1076,11" stroke="#000000" fill="none"/>
 <polyline points="1076,11 146,11" stroke="#000000" fill="none"/>
 <polyline points="146,11 144,11 142,12 141,12 139,13 138,15 136,16 135,18 135,19 134,21 134,23" stroke="#000000" fill="none"/>
 <polyline points="134,23 134,176" stroke="#000000" fill="none"/>
 <polyline points="134,176 134,178 135,180 135,181 136,183 138,184 139,186 141,187 142,187 144,188 146,188" stroke="#000000" fill="none"/>
 <text x="576" y="27" fill="#000000" font-family="Arial" font-size="12">stk1160.c</text>
 <polygon points="594,66 418,66 418,92 594,93 594,66" stroke="#C0C0C0" fill="#FFFFFF"/>
 <text x="426" y="82" fill="#000000" font-family="Arial" font-size="12">stk1160_i2c_write_reg</text>
 <polygon points="843,72 697,72 697,98 843,99 843,72" stroke="#C0C0C0" fill="#FFFFFF"/>
 <text x="704" y="88" fill="#000000" font-family="Arial" font-size="12">stk1160_write_reg</text>
 <polyline points="594,81 604,81 613,82 623,82 633,82 643,82 653,83 663,83 672,83 682,83 691,83" stroke="#0000CD" fill="none"/>
 <polygon points="691,81 696,83 691,85 691,81" stroke="#0000CD" fill="#0000CD"/>
 <polygon points="334,59 142,59 142,85 334,86 334,59" stroke="#C0C0C0" fill="#FFFFFF"/>
 <text x="150" y="75" fill="#000000" font-family="Arial" font-size="12">stk1160_start_streaming</text>
 <polyline points="334,75 342,75 350,75 358,75 366,75 374,76 381,76 389,76 397,76 405,77 413,77" stroke="#0000CD" fill="none"/>
 <polygon points="413,75 418,77 413,78 413,75" stroke="#0000CD" fill="#0000CD"/>
 <polyline points="334,62 357,60 382,58 408,56 436,55 464,54 492,53 521,53 550,54 578,55 606,57 616,58 626,59 636,60 646,61 656,63 666,64 675,66 685,68 694,69 703,71" stroke="#0000CD" fill="none"/>
 <polygon points="704,69 708,72 703,73 704,69" stroke="#0000CD" fill="#0000CD"/>
 <polygon points="1079,154 935,154 935,181 1079,181 1079,154" stroke="#C0C0C0" fill="#FFFFFF"/>
 <text x="942" y="170" fill="#000000" font-family="Arial" font-size="12">stk1160_read_reg</text>
 <polygon points="593,154 419,154 419,181 593,181 593,154" stroke="#C0C0C0" fill="#FFFFFF"/>
 <text x="426" y="170" fill="#000000" font-family="Arial" font-size="12">stk1160_i2c_read_reg</text>
 <polyline points="571,154 575,153 578,152 582,151 585,150 589,150 592,149 596,148 599,147 603,146 606,145 610,144 617,141 627,138 639,133 653,128 668,123 684,117 700,111 715,105 730,100" stroke="#0000CD" fill="none"/>
 <polygon points="729,98 735,98 731,101 729,98" stroke="#0000CD" fill="#0000CD"/>
 <polyline points="594,167 624,167 656,167 691,167 726,167 763,167 799,167 834,167 868,167 900,167 929,167" stroke="#0000CD" fill="none"/>
 <polygon points="929,165 934,167 929,169 929,165" stroke="#0000CD" fill="#0000CD"/>
 <polygon points="862,128 678,128 678,155 862,155 862,128" stroke="#C0C0C0" fill="#FFFFFF"/>
 <text x="686" y="144" fill="#000000" font-family="Arial" font-size="12">stk1160_i2c_busy_wait</text>
 <polyline points="594,158 602,157 609,157 617,156 625,155 633,155 641,154 649,153 657,152 665,152 673,151" stroke="#0000CD" fill="none"/>
 <polygon points="673,149 678,150 673,152 673,149" stroke="#0000CD" fill="#0000CD"/>
 <polyline points="862,151 869,152 875,153 882,153 889,154 896,155 903,156 909,156 916,157 923,157 929,158" stroke="#0000CD" fill="none"/>
 <polygon points="930,157 934,159 929,160 930,157" stroke="#0000CD" fill="#0000CD"/>
 <polygon points="69,118 8,118 5,121 5,145 66,145 69,142 69,118" stroke="#C0C0C0" fill="#FFFFFF"/>
 <polyline points="66,121 5,121" stroke="#C0C0C0" fill="none"/>
 <polyline points="66,121 66,145" stroke="#C0C0C0" fill="none"/>
 <polyline points="66,121 69,118" stroke="#C0C0C0" fill="none"/>
 <text x="12" y="134" fill="#000000" font-family="Arial" font-size="12">main.c</text>
 <polyline points="68,118 74,116 80,113 86,111 92,108 99,106 106,103 113,101 120,98 127,96 134,94 137,93 140,92 143,92 146,91 149,90 152,89 155,88 158,88 161,87 164,86" stroke="#0000CD" fill="none"/>
 <polygon points="164,84 169,85 164,88 164,84" stroke="#0000CD" fill="#0000CD"/>
 <polyline points="70,138 92,142 118,147 147,153 180,159 215,165 252,170 290,176 329,181 368,185 406,189 463,193 521,194 580,195 638,194 695,192 750,190 801,186 849,183 892,179 929,176" stroke="#0000CD" fill="none"/>
 <polygon points="929,174 934,175 929,177 929,174" stroke="#0000CD" fill="#0000CD"/>
 <polygon points="605,110 407,110 407,137 605,137 605,110" stroke="#C0C0C0" fill="#FFFFFF"/>
 <text x="414" y="126" fill="#000000" font-family="Arial" font-size="12">stk1160_set_videosource</text>
 <polyline points="70,130 93,130 120,129 151,129 185,128 221,128 258,127 295,127 332,126 368,126 401,125" stroke="#0000CD" fill="none"/>
 <polygon points="401,123 406,125 401,127 401,123" stroke="#0000CD" fill="#0000CD"/>
 <polyline points="596,110 605,109 615,107 625,106 634,105 644,103 654,102 663,100 673,99 682,97 691,96" stroke="#0000CD" fill="none"/>
 <polygon points="691,95 696,96 692,98 691,95" stroke="#0000CD" fill="#0000CD"/>
</svg>
