<?xml version="1.0"?>
<svg width="406" height="400" xmlns="http://www.w3.org/2000/svg" version="1.1">
 <polyline points="80,187 106,187 116,18 124,18" stroke="#8C2020" fill="none"/>
 <polyline points="80,187 106,187 116,44 124,44" stroke="#8C2020" fill="none"/>
 <polyline points="80,187 106,187 116,226 124,226" stroke="#8C2020" fill="none"/>
 <polyline points="80,187 106,187 116,252 124,252" stroke="#8C2020" fill="none"/>
 <polyline points="80,187 106,187 116,278 124,278" stroke="#8C2020" fill="none"/>
 <polyline points="80,187 106,187 116,304 124,304" stroke="#8C2020" fill="none"/>
 <polyline points="80,187 106,187 116,330 124,330" stroke="#8C2020" fill="none"/>
 <polyline points="80,187 106,187 116,356 124,356" stroke="#8C2020" fill="none"/>
 <polyline points="237,226 263,226 273,70 281,70" stroke="#8C2020" fill="none"/>
 <polyline points="237,226 263,226 273,96 281,96" stroke="#8C2020" fill="none"/>
 <polyline points="237,226 263,226 273,122 281,122" stroke="#8C2020" fill="none"/>
 <polyline points="237,226 263,226 273,148 281,148" stroke="#8C2020" fill="none"/>
 <polyline points="237,226 263,226 273,174 281,174" stroke="#8C2020" fill="none"/>
 <polyline points="237,226 263,226 273,200 281,200" stroke="#8C2020" fill="none"/>
 <polyline points="237,226 263,226 273,226 281,226" stroke="#8C2020" fill="none"/>
 <polyline points="237,226 263,226 273,252 281,252" stroke="#8C2020" fill="none"/>
 <polyline points="237,226 263,226 273,278 281,278" stroke="#8C2020" fill="none"/>
 <polyline points="237,226 263,226 273,304 281,304" stroke="#8C2020" fill="none"/>
 <polyline points="237,226 263,226 273,330 281,330" stroke="#8C2020" fill="none"/>
 <polyline points="237,226 263,226 273,356 281,356" stroke="#8C2020" fill="none"/>
 <polyline points="237,226 263,226 273,382 281,382" stroke="#8C2020" fill="none"/>
 <polygon points="12,176 80,176 75,198 7,198 12,176" stroke="#20208C" fill="#FFFFFF"/>
 <text x="15" y="189" fill="#8C2020" font-family="Arial" font-size="10">stk1160.c</text>
 <polygon points="129,7 190,7 185,29 124,29 129,7" stroke="#20208C" fill="#FFFFFF"/>
 <text x="132" y="20" fill="#000000" font-family="Arial" font-size="10">debug.h</text>
 <polygon points="129,33 222,33 217,55 124,55 129,33" stroke="#20208C" fill="#FFFFFF"/>
 <text x="132" y="46" fill="#000000" font-family="Arial" font-size="10">stk1160-reg.h</text>
 <polygon points="129,215 237,215 232,237 124,237 129,215" stroke="#20208C" fill="#FFFFFF"/>
 <text x="132" y="228" fill="#000000" font-family="Arial" font-size="10">native-stk1160.c</text>
 <polygon points="129,241 198,241 193,263 124,263 129,241" stroke="#20208C" fill="#FFFFFF"/>
 <text x="132" y="254" fill="#000000" font-family="Arial" font-size="10">hwtimer.h</text>
 <polygon points="129,267 198,267 193,289 124,289 129,267" stroke="#20208C" fill="#FFFFFF"/>
 <text x="132" y="280" fill="#000000" font-family="Arial" font-size="10">stk1160.h</text>
 <polygon points="129,293 197,293 192,315 124,315 129,293" stroke="#20208C" fill="#FFFFFF"/>
 <text x="132" y="306" fill="#000000" font-family="Arial" font-size="10">hwtimer.c</text>
 <polygon points="129,319 232,319 227,341 124,341 129,319" stroke="#20208C" fill="#FFFFFF"/>
 <text x="132" y="332" fill="#000000" font-family="Arial" font-size="10">stk1160_arch.h</text>
 <polygon points="129,345 235,345 230,367 124,367 129,345" stroke="#20208C" fill="#FFFFFF"/>
 <text x="132" y="358" fill="#000000" font-family="Arial" font-size="10">saa711x_regs.h</text>
 <polygon points="286,59 347,59 342,81 281,81 286,59" stroke="#20208C" fill="#FFFFFF"/>
 <text x="289" y="72" fill="#000000" font-family="Arial" font-size="10">debug.h</text>
 <polygon points="286,85 366,85 361,107 281,107 286,85" stroke="#20208C" fill="#FFFFFF"/>
 <text x="289" y="98" fill="#000000" font-family="Arial" font-size="10">descriptor.c</text>
 <polygon points="286,111 355,111 350,133 281,133 286,111" stroke="#20208C" fill="#FFFFFF"/>
 <text x="289" y="124" fill="#000000" font-family="Arial" font-size="10">hwtimer.h</text>
 <polygon points="286,137 331,137 326,159 281,159 286,137" stroke="#20208C" fill="#FFFFFF"/>
 <text x="289" y="150" fill="#000000" font-family="Arial" font-size="10">cpu.h</text>
 <polygon points="286,163 354,163 349,185 281,185 286,163" stroke="#20208C" fill="#FFFFFF"/>
 <text x="289" y="176" fill="#000000" font-family="Arial" font-size="10">hwtimer.c</text>
 <polygon points="286,189 389,189 384,211 281,211 286,189" stroke="#20208C" fill="#FFFFFF"/>
 <text x="289" y="202" fill="#000000" font-family="Arial" font-size="10">stk1160_arch.h</text>
 <polygon points="286,215 344,215 339,237 281,237 286,215" stroke="#20208C" fill="#FFFFFF"/>
 <text x="289" y="228" fill="#000000" font-family="Arial" font-size="10">libusb.h</text>
 <polygon points="286,241 361,241 356,263 281,263 286,241" stroke="#20208C" fill="#FFFFFF"/>
 <text x="289" y="254" fill="#000000" font-family="Arial" font-size="10">cpu-conf.h</text>
 <polygon points="286,267 347,267 342,289 281,289 286,267" stroke="#20208C" fill="#FFFFFF"/>
 <text x="289" y="280" fill="#000000" font-family="Arial" font-size="10">thread.c</text>
 <polygon points="286,293 319,293 314,315 281,315 286,293" stroke="#20208C" fill="#FFFFFF"/>
 <text x="289" y="306" fill="#000000" font-family="Arial" font-size="10">io.c</text>
 <polygon points="286,319 336,319 331,341 281,341 286,319" stroke="#20208C" fill="#FFFFFF"/>
 <text x="289" y="332" fill="#000000" font-family="Arial" font-size="10">sync.c</text>
 <polygon points="286,345 335,345 330,367 281,367 286,345" stroke="#20208C" fill="#FFFFFF"/>
 <text x="289" y="358" fill="#000000" font-family="Arial" font-size="10">core.c</text>
 <polygon points="286,371 347,371 342,393 281,393 286,371" stroke="#20208C" fill="#FFFFFF"/>
 <text x="289" y="384" fill="#000000" font-family="Arial" font-size="10">thread.h</text>
</svg>
